# xmcd
#
# Track frame offsets:
#	150
#	42180
#	79727
#	103305
#	159572
#	200840
#	247777
#	291880
#	325987
#
# Disc length: 4765 seconds
#
# Revision: 1
# Processed by: cddbd v1.5.2PL0 Copyright (c) Steve Scherf et al.
# Submitted via: EasyCDDAExtractor 12.0.1.1
#
DISCID=7c129b09
DTITLE=Harper Lee - To Kill A Mockingbird [CD02 of 11)
DYEAR=2006
DGENRE=Audiobook
TTITLE0=Four
TTITLE1=Two Days Later Dill
TTITLE2=As the Summer
TTITLE3=Five
TTITLE4=Next Morning
TTITLE5=Six
TTITLE6=We Ran Across
TTITLE7=Seven
TTITLE8=The Following Week The Knot-Hole Yielded
EXTD=YEAR: 2006
EXTT0=
EXTT1=
EXTT2=
EXTT3=
EXTT4=
EXTT5=
EXTT6=
EXTT7=
EXTT8=
PLAYORDER=
